#!OML:ASF F:\twosubjects\two\Thursday\Session 1\justin.ASF
:FULLY-SPECIFIED
:DEGREES
416
root -9.02386 17.6383 6.64446 -169.847 29.9357 187.186
lowerback 6.64105 -1.80504 -6.99288
upperback 3.86594 -2.55882 -0.985546
thorax 0.564078 -1.29063 3.04582
lowerneck -10.778 -14.9405 -17.4023
upperneck 26.3492 -20.9515 13.9183
head 14.3002 -9.31059 4.6347
rclavicle 5.68524e-014 2.8625e-014
rhumerus -35.1916 -16.4751 -56.4936
rradius 83.2467
rwrist -70.0737
rhand 4.63656 -11.4345
rfingers 7.12502
rthumb 30.0233 -39.0175
lclavicle 5.68524e-014 2.8625e-014
lhumerus -27.2115 -1.24597 76.5751
lradius 46.3555
lwrist 1.65465
lhand -4.03814 36.4536
lfingers 7.12502
lthumb 21.7173 65.2554
rfemur -24.4356 0.593883 10.9076
rtibia 31.9528
rfoot -10.4146 -9.79638
rtoes -14.078
lfemur -15.8448 6.22866 -7.30589
ltibia 32.82
lfoot -20.726 -4.04286
ltoes -25.2624
417
root -9.08143 17.6474 6.60309 -169.56 30.9644 187.346
lowerback 6.5003 -1.84107 -6.9093
upperback 3.79445 -2.60662 -0.892462
thorax 0.572088 -1.31841 3.09427
lowerneck -10.9221 -14.7309 -17.4689
upperneck 26.3113 -20.5592 13.7685
head 14.2208 -9.16386 4.66653
rclavicle -6.2816e-014 -1.11319e-014
rhumerus -34.7552 -15.821 -57.0691
rradius 83.4997
rwrist -70.1539
rhand 4.20726 -11.1194
rfingers 7.12502
rthumb 29.6136 -38.7759
lclavicle -6.2816e-014 -1.11319e-014
lhumerus -26.9071 -2.21666 76.9102
lradius 46.4606
lwrist 1.24679
lhand -4.96233 35.7556
lfingers 7.12502
lthumb 20.8296 64.6575
rfemur -25.3034 -0.209198 11.4869
rtibia 32.5367
rfoot -9.95235 -10.4508
rtoes -13.2444
lfemur -15.6568 6.64091 -7.58355
ltibia 32.7579
lfoot -20.6302 -3.4064
ltoes -24.4624
418
root -9.13615 17.6504 6.56684 -169.272 32.2049 187.344
lowerback 6.35498 -1.98436 -7.20713
upperback 3.46148 -2.84714 -0.650157
thorax 0.360166 -1.4442 3.52466
lowerneck -10.5773 -14.2606 -18.143
upperneck 26.1983 -19.7096 13.6717
head 14.0032 -8.89876 4.94391
rclavicle 3.93594e-014 4.6118e-014
rhumerus -34.2611 -14.1835 -57.5496
rradius 83.8357
rwrist -70.4106
rhand 3.9579 -11.2167
rfingers 7.12502
rthumb 29.3755 -38.9152
lclavicle 3.93594e-014 4.6118e-014
lhumerus -27.233 -2.13648 77.2102
lradius 46.7148
lwrist 0.693541
lhand -4.84668 34.8864
lfingers 7.12502
lthumb 20.9407 63.776
rfemur -26.362 -0.964752 11.9956
rtibia 33.0866
rfoot -9.30412 -11.302
rtoes -12.6071
lfemur -15.5388 7.13986 -8.06561
ltibia 32.6928
lfoot -20.6185 -2.63053
ltoes -24.5609
419
root -9.18417 17.6568 6.52808 -169.002 33.3069 187.391
lowerback 6.27618 -1.66823 -7.00214
upperback 3.45094 -2.40878 -0.841127
thorax 0.323972 -1.21781 3.18937
lowerneck -10.9173 -14.3859 -17.7309
upperneck 26.1086 -19.9911 13.828
head 14.0607 -8.94902 4.85802
rclavicle -5.48646e-014 6.99722e-014
rhumerus -34.2484 -14.5291 -57.9574
rradius 83.9898
rwrist -70.3651
rhand 4.00874 -11.2584
rfingers 7.12502
rthumb 29.424 -38.9485
lclavicle -5.48646e-014 6.99722e-014
lhumerus -26.335 -3.88557 77.3615
lradius 47.2401
lwrist 1.47732
lhand -4.43618 35.416
lfingers 7.12502
lthumb 21.3351 64.2616
rfemur -27.3058 -2.01466 12.674
rtibia 33.5953
rfoot -8.85808 -12.0847
rtoes -11.6742
lfemur -15.3879 7.50025 -8.47431
ltibia 32.6162
lfoot -20.576 -1.68009
ltoes -24.9896
420
root -9.22998 17.6672 6.48584 -168.735 34.1625 187.649
lowerback 6.29532 -1.45765 -6.61387
upperback 3.48683 -2.10743 -0.919992
thorax 0.297904 -1.0604 2.87655
lowerneck -11.2907 -14.4436 -17.2133
upperneck 26.0392 -20.1567 13.8692
head 14.0791 -8.94885 4.73603
rclavicle 6.16232e-014 4.6118e-014
rhumerus -34.0343 -14.749 -58.3712
rradius 84.0135
rwrist -70.1428
rhand 3.64454 -10.9515
rfingers 7.12502
rthumb 29.0763 -38.7022
lclavicle 6.16232e-014 4.6118e-014
lhumerus -25.4682 -5.57213 77.5241
lradius 47.7464
lwrist 2.40788
lhand -4.27638 35.6599
lfingers 7.12502
lthumb 21.4885 64.488
rfemur -28.0506 -3.15697 13.6245
rtibia 34.1223
rfoot -8.73385 -13.0119
rtoes -8.58384
lfemur -15.0965 7.55745 -8.61306
ltibia 32.462
lfoot -20.4914 -0.846336
ltoes -24.8058
